<svg width="27.100098" height="27.416504" viewBox="0 0 27.1001 27.4165" fill="none" xmlns="http://www.w3.org/2000/svg" xmlns:xlink="http://www.w3.org/1999/xlink">
	<desc>
			Created with Pixso.
	</desc>
	<defs/>
	<path id="Vector" d="M0.87 0L0.86 0C0.74 0 0.61 0.03 0.5 0.09C0.39 0.15 0.28 0.23 0.2 0.34C0.12 0.45 0.06 0.57 0.03 0.71C-0.01 0.85 -0.01 0.99 0.01 1.13L3.69 26.3C3.79 26.94 4.27 27.41 4.85 27.41L22.53 27.41C22.74 27.41 22.94 27.33 23.1 27.18C23.26 27.03 23.37 26.82 23.4 26.59L27.08 1.13C27.1 0.99 27.1 0.85 27.06 0.71C27.03 0.58 26.97 0.45 26.89 0.35C26.81 0.24 26.7 0.15 26.59 0.09C26.48 0.03 26.35 0 26.23 0L26.22 0L0.87 0ZM16.4 18.19L10.75 18.19L9.22 9.21L17.76 9.21L16.39 18.19L16.4 18.19Z" fill="#FFFFFF" fill-opacity="1.000000" fill-rule="nonzero"/>
</svg>
