<svg width="28.001343" height="27.067383" viewBox="0 0 28.0013 27.0674" fill="none" xmlns="http://www.w3.org/2000/svg" xmlns:xlink="http://www.w3.org/1999/xlink">
	<desc>
			Created with Pixso.
	</desc>
	<defs/>
	<path id="Vector" d="M14.06 0C10.71 0 7.47 1.17 4.95 3.3C2.39 5.45 0.7 8.41 0.18 11.65C-0.36 14.9 0.3 18.23 2.03 21.06C3.74 23.87 6.43 25.99 9.62 27.04C10.33 27.17 10.58 26.73 10.58 26.37L10.58 24.01C6.65 24.85 5.82 22.14 5.82 22.14C5.57 21.31 5.01 20.59 4.26 20.11C2.99 19.25 4.37 19.25 4.37 19.25C4.81 19.32 5.24 19.48 5.61 19.72C5.98 19.97 6.29 20.3 6.51 20.68C6.71 21.03 6.96 21.33 7.27 21.57C7.73 21.94 8.3 22.16 8.89 22.21C9.49 22.26 10.08 22.13 10.6 21.84C10.66 21.14 10.96 20.48 11.47 19.99C8.34 19.64 5.06 18.44 5.06 13.17C5.04 11.8 5.56 10.47 6.51 9.45C6.08 8.25 6.13 6.94 6.64 5.78C6.64 5.78 7.83 5.4 10.51 7.2C12.81 6.58 15.25 6.58 17.55 7.2C20.23 5.4 21.4 5.78 21.4 5.78C21.92 6.93 21.98 8.23 21.58 9.42C22.53 10.44 23.04 11.77 23.02 13.15C23.02 18.48 19.73 19.65 16.6 19.96C16.93 20.29 17.19 20.69 17.36 21.14C17.52 21.58 17.59 22.05 17.56 22.52L17.56 26.32C17.56 26.78 17.81 27.12 18.52 26.99C21.67 25.91 24.33 23.78 26.01 20.99C27.71 18.16 28.35 14.86 27.81 11.64C27.29 8.42 25.62 5.49 23.09 3.34C20.59 1.21 17.39 0.03 14.06 0Z" fill="#F9F9F9" fill-opacity="1.000000" fill-rule="evenodd"/>
</svg>
