<svg width="22.000000" height="24.000488" viewBox="0 0 22 24.0005" fill="none" xmlns="http://www.w3.org/2000/svg" xmlns:xlink="http://www.w3.org/1999/xlink">
	<desc>
			Created with Pixso.
	</desc>
	<defs>
		<linearGradient x1="16.557997" y1="3.629357" x2="5.356000" y2="21.340359" id="paint_linear_1_78_0" gradientUnits="userSpaceOnUse">
			<stop stop-color="#FFB45B"/>
			<stop offset="1.000000" stop-color="#FF8A00"/>
		</linearGradient>
	</defs>
	<path id="Vector" d="M13.07 1.19C13.22 1.46 13.32 1.76 13.36 2.07C13.4 2.38 13.38 2.69 13.3 2.99C13.21 3.29 13.07 3.58 12.88 3.82C12.69 4.07 12.45 4.27 12.18 4.43L5.07 8.47C4.98 8.52 4.9 8.59 4.85 8.69C4.79 8.78 4.76 8.88 4.76 8.99L4.76 15.33C4.76 15.43 4.79 15.54 4.85 15.63C4.9 15.72 4.98 15.8 5.07 15.85L10.7 19.05C10.79 19.1 10.89 19.13 11 19.13C11.1 19.13 11.2 19.1 11.29 19.05L16.92 15.85C17.01 15.8 17.09 15.72 17.14 15.63C17.2 15.54 17.23 15.44 17.23 15.33L17.23 11.39L12.17 14.22C11.62 14.53 10.97 14.61 10.36 14.44C9.75 14.27 9.23 13.87 8.92 13.32C8.76 13.05 8.67 12.75 8.63 12.44C8.59 12.13 8.61 11.82 8.7 11.52C8.78 11.22 8.93 10.94 9.12 10.69C9.31 10.45 9.55 10.25 9.82 10.09L17.06 6.03C19.27 4.8 22 6.38 22 8.9L22 15.81C22 17.43 21.12 18.93 19.71 19.73L13.25 23.4C12.56 23.79 11.78 24 11 24C10.21 24 9.43 23.79 8.74 23.4L2.28 19.73C1.59 19.34 1.01 18.77 0.61 18.08C0.21 17.39 0 16.61 0 15.81L0 8.51C0 6.89 0.87 5.39 2.28 4.59L9.81 0.31C10.36 0 11.01 -0.09 11.62 0.08C12.23 0.24 12.75 0.64 13.07 1.19Z" fill="url(#paint_linear_1_78_0)" fill-opacity="1.000000" fill-rule="evenodd"/>
</svg>
